# Blender v2.90.1 OBJ File: 'Assets_Unicorntrafficing.blend'
# www.blender.org
mtllib Block.mtl
o Cube.001_Cube.008
v -0.445603 0.000584 0.445603
v -0.445603 0.054982 0.500000
v -0.500000 0.054982 0.445603
v -0.445603 0.016517 0.484067
v -0.477009 0.023575 0.477009
v -0.484067 0.054982 0.484067
v -0.484067 0.016517 0.445603
v -0.445603 0.946187 0.500000
v -0.445603 1.000584 0.445603
v -0.500000 0.946187 0.445603
v -0.445603 0.984652 0.484067
v -0.477009 0.977593 0.477009
v -0.484067 0.984652 0.445603
v -0.484067 0.946187 0.484067
v -0.445603 0.000584 -0.445603
v -0.500000 0.054982 -0.445603
v -0.445603 0.054982 -0.500000
v -0.484067 0.016517 -0.445603
v -0.477009 0.023575 -0.477009
v -0.484067 0.054982 -0.484067
v -0.445603 0.016517 -0.484067
v -0.445603 1.000584 -0.445603
v -0.445603 0.946187 -0.500000
v -0.500000 0.946187 -0.445603
v -0.445603 0.984652 -0.484067
v -0.477009 0.977593 -0.477009
v -0.484067 0.946187 -0.484067
v -0.484067 0.984652 -0.445603
v 0.445603 0.000584 0.445603
v 0.500000 0.054982 0.445603
v 0.445603 0.054982 0.500000
v 0.484067 0.016517 0.445603
v 0.477009 0.023575 0.477009
v 0.484067 0.054982 0.484067
v 0.445603 0.016517 0.484067
v 0.445603 1.000584 0.445603
v 0.445603 0.946187 0.500000
v 0.500000 0.946187 0.445603
v 0.445603 0.984652 0.484067
v 0.477009 0.977593 0.477009
v 0.484067 0.946187 0.484067
v 0.484067 0.984652 0.445603
v 0.445603 0.000584 -0.445603
v 0.445603 0.054982 -0.500000
v 0.500000 0.054982 -0.445603
v 0.445603 0.016517 -0.484067
v 0.477009 0.023575 -0.477009
v 0.484067 0.054982 -0.484067
v 0.484067 0.016517 -0.445603
v 0.445603 1.000584 -0.445603
v 0.500000 0.946187 -0.445603
v 0.445603 0.946187 -0.500000
v 0.484067 0.984652 -0.445603
v 0.477009 0.977593 -0.477009
v 0.484067 0.946187 -0.484067
v 0.445603 0.984652 -0.484067
vt 0.954063 0.955648
vt 0.042681 0.955667
vt 0.042681 0.044247
vt 0.954063 0.044267
vt 0.954921 0.953228
vt 0.043521 0.953204
vt 0.043526 0.041804
vt 0.954926 0.041829
vt 0.042926 0.954328
vt 0.042931 0.042928
vt 0.954330 0.042953
vt 0.954324 0.954352
vt 0.041336 0.951261
vt 0.041350 0.039862
vt 0.952750 0.039896
vt 0.952735 0.951295
vt 0.043802 0.041238
vt 0.955186 0.041256
vt 0.955186 0.952639
vt 0.043803 0.952658
vt 0.043648 0.042715
vt 0.001100 0.041187
vt 0.007502 0.006565
vt 0.042124 0.000148
vt 0.955591 0.001729
vt 0.990197 0.008135
vt 0.996602 0.042742
vt 0.039809 0.993799
vt 0.005202 0.987393
vt -0.001203 0.952786
vt 0.000133 0.042720
vt 0.006534 0.008098
vt 0.041156 0.001682
vt 0.955857 0.000414
vt 0.990464 0.006821
vt 0.996869 0.041428
vt -0.001203 0.038321
vt 0.005217 0.003712
vt 0.039830 -0.002683
vt 0.955032 0.042734
vt 0.956559 0.000196
vt 0.991165 0.006603
vt 0.997569 0.041209
vt 0.995289 0.952835
vt 0.988869 0.987444
vt 0.954256 0.993839
vt 0.001254 0.039711
vt 0.007656 0.005088
vt 0.042277 -0.001328
vt 0.000387 0.041406
vt 0.006783 0.006793
vt 0.041393 0.000374
vt 0.956713 -0.001281
vt 0.991319 0.005126
vt 0.997723 0.039732
vt 0.954277 -0.002643
vt 0.988883 0.003764
vt 0.995289 0.038370
vt 0.043648 0.954135
vt 0.042124 0.996701
vt 0.007502 0.990285
vt 0.001100 0.955662
vt 0.956453 -0.000710
vt 0.991059 0.005697
vt 0.997464 0.040304
vt 0.996602 0.957172
vt 0.990197 0.991778
vt 0.955592 0.998185
vt 0.996869 0.955874
vt 0.990473 0.990487
vt 0.955863 0.996906
vt 0.041157 0.998234
vt 0.006534 0.991817
vt 0.000132 0.957195
vt 0.000983 0.040282
vt 0.007378 0.005670
vt 0.041988 -0.000749
vt 0.955031 0.954116
vt 0.997569 0.955641
vt 0.991164 0.990247
vt 0.956558 0.996653
vt 0.042278 0.995224
vt 0.007656 0.988809
vt 0.001254 0.954186
vt 0.997464 0.954751
vt 0.991069 0.989363
vt 0.956460 0.995782
vt 0.041399 0.996866
vt 0.006792 0.990459
vt 0.000387 0.955852
vt 0.041995 0.995744
vt 0.007388 0.989337
vt 0.000983 0.954730
vt 0.997723 0.954164
vt 0.991319 0.988770
vt 0.956713 0.995176
vn 0.1794 -0.1794 0.9673
vn 0.1794 0.1794 0.9673
vn -0.1794 0.1794 0.9673
vn -0.1794 -0.1794 0.9673
vn 0.9673 -0.1794 -0.1794
vn 0.9673 0.1794 -0.1794
vn 0.9673 0.1794 0.1794
vn 0.9673 -0.1794 0.1794
vn 0.1794 0.9673 -0.1794
vn -0.1794 0.9673 -0.1794
vn -0.1794 0.9673 0.1794
vn 0.1794 0.9673 0.1794
vn -0.9673 -0.1794 0.1794
vn -0.9673 0.1794 0.1794
vn -0.9673 0.1794 -0.1794
vn -0.9673 -0.1794 -0.1794
vn -0.1794 -0.1794 -0.9673
vn -0.1794 0.1794 -0.9673
vn 0.1794 0.1794 -0.9673
vn 0.1794 -0.1794 -0.9673
vn -0.1794 -0.9673 0.1794
vn -0.1726 -0.6965 0.6965
vn -0.5773 -0.5773 0.5773
vn -0.6965 -0.6965 0.1726
vn -0.6965 -0.1726 0.6965
vn -0.1726 0.6965 0.6965
vn -0.5773 0.5773 0.5773
vn -0.6965 0.1726 0.6965
vn -0.6965 0.6965 0.1726
vn -0.1794 -0.9673 -0.1794
vn -0.6965 -0.6965 -0.1726
vn -0.5773 -0.5773 -0.5773
vn -0.1726 -0.6965 -0.6965
vn -0.6965 -0.1726 -0.6965
vn -0.1726 0.6965 -0.6965
vn -0.5773 0.5773 -0.5773
vn -0.6965 0.6965 -0.1726
vn -0.6965 0.1726 -0.6965
vn 0.1794 -0.9673 0.1794
vn 0.6965 -0.6965 0.1726
vn 0.5773 -0.5773 0.5773
vn 0.1726 -0.6965 0.6965
vn 0.6965 -0.1726 0.6965
vn 0.1726 0.6965 0.6965
vn 0.5773 0.5773 0.5773
vn 0.6965 0.6965 0.1726
vn 0.6965 0.1726 0.6965
vn 0.1794 -0.9673 -0.1794
vn 0.1726 -0.6965 -0.6965
vn 0.5773 -0.5773 -0.5773
vn 0.6965 -0.6965 -0.1726
vn 0.6965 -0.1726 -0.6965
vn 0.6965 0.6965 -0.1726
vn 0.5773 0.5773 -0.5773
vn 0.1726 0.6965 -0.6965
vn 0.6965 0.1726 -0.6965
usemtl Cube
s 1
f 31/1/1 37/2/2 8/3/3 2/4/4
f 45/5/5 51/6/6 38/7/7 30/8/8
f 50/9/9 22/10/10 9/11/11 36/12/12
f 3/13/13 10/14/14 24/15/15 16/16/16
f 17/17/17 23/18/18 52/19/19 44/20/20
f 1/21/21 4/22/22 5/23/23 7/24/24
f 2/4/4 6/25/25 5/26/23 4/27/22
f 3/13/13 7/28/24 5/29/23 6/30/25
f 8/3/3 11/31/26 12/32/27 14/33/28
f 9/11/11 13/34/29 12/35/27 11/36/26
f 10/14/14 14/37/28 12/38/27 13/39/29
f 15/40/30 18/41/31 19/42/32 21/43/33
f 16/16/16 20/44/34 19/45/32 18/46/31
f 17/17/17 21/47/33 19/48/32 20/49/34
f 22/10/10 25/50/35 26/51/36 28/52/37
f 23/18/18 27/53/38 26/54/36 25/55/35
f 24/15/15 28/56/37 26/57/36 27/58/38
f 29/59/39 32/60/40 33/61/41 35/62/42
f 30/8/8 34/63/43 33/64/41 32/65/40
f 31/1/1 35/66/42 33/67/41 34/68/43
f 36/12/12 39/69/44 40/70/45 42/71/46
f 37/2/2 41/72/47 40/73/45 39/74/44
f 38/7/7 42/75/46 40/76/45 41/77/47
f 43/78/48 46/79/49 47/80/50 49/81/51
f 44/20/20 48/82/52 47/83/50 46/84/49
f 45/5/5 49/85/51 47/86/50 48/87/52
f 50/9/9 53/88/53 54/89/54 56/90/55
f 51/6/6 55/91/56 54/92/54 53/93/53
f 52/19/19 56/94/55 54/95/54 55/96/56
f 15/40/30 1/21/21 7/24/24 18/41/31
f 18/46/31 7/28/24 3/13/13 16/16/16
f 2/4/4 8/3/3 14/33/28 6/25/25
f 6/30/25 14/37/28 10/14/14 3/13/13
f 9/11/11 22/10/10 28/52/37 13/34/29
f 13/39/29 28/56/37 24/15/15 10/14/14
f 23/18/18 17/17/17 20/49/34 27/53/38
f 27/58/38 20/44/34 16/16/16 24/15/15
f 43/78/48 15/40/30 21/43/33 46/79/49
f 46/84/49 21/47/33 17/17/17 44/20/20
f 22/10/10 50/9/9 56/90/55 25/50/35
f 25/55/35 56/94/55 52/19/19 23/18/18
f 51/6/6 45/5/5 48/87/52 55/91/56
f 55/96/56 48/82/52 44/20/20 52/19/19
f 29/59/39 43/78/48 49/81/51 32/60/40
f 32/65/40 49/85/51 45/5/5 30/8/8
f 50/9/9 36/12/12 42/71/46 53/88/53
f 53/93/53 42/75/46 38/7/7 51/6/6
f 37/2/2 31/1/1 34/68/43 41/72/47
f 41/77/47 34/63/43 30/8/8 38/7/7
f 1/21/21 29/59/39 35/62/42 4/22/22
f 4/27/22 35/66/42 31/1/1 2/4/4
f 36/12/12 9/11/11 11/36/26 39/69/44
f 39/74/44 11/31/26 8/3/3 37/2/2
f 15/40/30 43/78/48 29/59/39 1/21/21
